<svg viewBox="0 0 8.00004 8.00012" xmlns="http://www.w3.org/2000/svg" xmlns:xlink="http://www.w3.org/1999/xlink" width="8.000042" height="8.000122" fill="none" customFrame="#000000">
	<rect id="Btn/ cross mini" width="8.000043" height="8.000118" x="0.000000" y="0.000000" />
	<path id="Btn/ cross mini" d="M3.99996 5.22229L1.37727 7.84498C1.12213 8.10013 0.641687 8.03336 0.304183 7.69586C-0.0333213 7.35836 -0.100086 6.87792 0.15506 6.62277L2.77775 4.00008L0.155017 1.37735C-0.100129 1.1222 -0.0333645 0.641762 0.30414 0.304258C0.641644 -0.0332461 1.12208 -0.100011 1.37723 0.155135L3.99996 2.77787L6.62282 0.155017C6.87796 -0.100129 7.3584 -0.0333648 7.6959 0.30414C8.03341 0.641644 8.10017 1.12208 7.84503 1.37723L5.22217 4.00008L7.84498 6.62289C8.10013 6.87804 8.03336 7.35847 7.69586 7.69598C7.35836 8.03348 6.87792 8.10025 6.62277 7.8451L3.99996 5.22229Z" fill="rgb(255,0,0)" fill-rule="evenodd" />
	<path id="Btn/ cross mini" d="M3.99996 5.22229L1.37727 7.84498C1.12213 8.10013 0.641687 8.03336 0.304183 7.69586C-0.0333213 7.35836 -0.100086 6.87792 0.15506 6.62277L2.77775 4.00008L0.155017 1.37735C-0.100129 1.1222 -0.0333645 0.641762 0.30414 0.304258C0.641644 -0.0332461 1.12208 -0.100011 1.37723 0.155135L3.99996 2.77787L6.62282 0.155017C6.87796 -0.100129 7.3584 -0.0333648 7.6959 0.30414C8.03341 0.641644 8.10017 1.12208 7.84503 1.37723L5.22217 4.00008L7.84498 6.62289C8.10013 6.87804 8.03336 7.35847 7.69586 7.69598C7.35836 8.03348 6.87792 8.10025 6.62277 7.8451L3.99996 5.22229Z" fill="rgb(11,23,57)" fill-rule="evenodd" />
</svg>
